<svg width="749" height="918" viewBox="0 0 749 918" fill="none" xmlns="http://www.w3.org/2000/svg">
<g clip-path="url(#clip0_219_323)">
<rect width="749" height="918" fill="#F6FCFE"/>
<path fill-rule="evenodd" clip-rule="evenodd" d="M243.887 948.002C187.267 954.522 134.432 916.616 89.5245 881.52C40.2812 843.036 -37.8309 798.76 -25.4679 737.498C-10.5514 663.581 96.0298 652.687 146.931 597.052C170.742 571.026 178.249 535.6 189.758 502.256C212.636 435.974 180.349 321.886 248.119 303.889C314.959 286.138 326.614 425.552 391.818 448.595C451.45 469.669 524.507 383.19 576.085 419.791C623.219 453.238 591.548 531.823 590.534 589.609C589.735 635.196 571.662 677.015 570.775 722.6C569.484 788.955 639.681 881.516 584.145 917.853C522.615 958.112 452.043 841.719 378.799 848.209C322.115 853.232 300.419 941.492 243.887 948.002Z" fill="#FFD090"/>
<path fill-rule="evenodd" clip-rule="evenodd" d="M-90.7911 396.249C-125.788 376.204 -159.948 449.995 -200.057 445.77C-232.091 442.395 -262.401 409.459 -267.423 377.642C-273.333 340.197 -228.935 310.089 -227.449 272.21C-226.412 245.768 -265.219 226.802 -260.484 200.767C-255.693 174.427 -207.778 170.958 -204.207 144.424C-197.82 96.9707 -245.257 51.7678 -234.163 5.1894C-224.828 -34.006 -189.627 -70.7433 -150.587 -80.7067C-110.793 -90.8625 -70.4413 -63.878 -33.4504 -46.034C-2.17614 -30.9477 27.2833 -11.0971 49.3285 15.7299C68.9845 39.6495 63.3439 79.4529 86.529 99.9701C112.225 122.709 152.632 117.507 182.805 133.847C228.478 158.582 320.725 170.264 310.274 221.142C298.008 280.853 189.705 257.766 148.182 302.394C126.012 326.222 155.105 368.314 144.66 399.139C133.41 432.34 110.819 460.539 86.1546 485.45C58.1845 513.699 25.9447 572.784 -9.55309 554.889C-63.0591 527.916 -38.7963 426.032 -90.7911 396.249Z" fill="#BBBBFF"/>
</g>
<defs>
<clipPath id="clip0_219_323">
<rect width="749" height="918" fill="white"/>
</clipPath>
</defs>
</svg>
