<svg width="789" height="982" viewBox="0 0 789 982" fill="none" xmlns="http://www.w3.org/2000/svg">
<g clip-path="url(#clip0_101_9)">
<rect width="789" height="982" fill="#F6FCFE"/>
<path fill-rule="evenodd" clip-rule="evenodd" d="M-269.349 600.477C-316.126 536.711 -213.677 456.572 -199.536 378.763C-194.8 352.705 -216.358 328.97 -215.197 302.511C-213.896 272.849 -199.979 246.981 -192.493 218.251C-176.577 157.167 -203.687 65.0698 -146.414 38.5297C-94.6917 14.5616 -62.9423 118.194 -7.80374 132.666C55.3478 149.241 131.994 85.7092 183.957 125.24C232.5 162.169 222.679 241.415 214.617 301.873C207.517 355.107 186.072 411.594 141.729 441.891C100.321 470.183 41.1972 433.396 -5.31755 452.142C-41.4885 466.719 -51.9231 514.536 -85.9228 533.637C-143.83 566.17 -230.062 654.032 -269.349 600.477Z" fill="#BBBBFF"/>
<path fill-rule="evenodd" clip-rule="evenodd" d="M557.189 226.545C599.235 285.008 525.845 360.682 534.072 432.729C544.493 523.988 658.899 604.738 609.294 682.846C557.968 763.664 437.069 744.144 343.058 733.501C237.06 721.501 90.7448 723.621 61.4695 620.825C32.1595 517.907 187.816 464.108 239.281 369.104C280.245 293.483 244.431 173.789 322.627 138.724C403.644 102.394 505.888 155.213 557.189 226.545Z" fill="#FFD090"/>
</g>
<defs>
<clipPath id="clip0_101_9">
<rect width="789" height="982" fill="white"/>
</clipPath>
</defs>
</svg>
